<svg width="30" height="29" viewBox="0 0 30 29" fill="none" xmlns="http://www.w3.org/2000/svg">
<g filter="url(#filter0_d)">
<path d="M25.4592 6.01238C24.6896 6.35373 23.8624 6.58442 22.9944 6.68815C23.8803 6.15701 24.5609 5.31598 24.8813 4.31378C24.052 4.80564 23.1336 5.16278 22.156 5.3552C21.3732 4.52112 20.2579 4 19.0235 4C16.6534 4 14.7317 5.92147 14.7317 8.29155C14.7317 8.6279 14.7697 8.95546 14.8429 9.2696C11.2761 9.0906 8.11375 7.38203 5.99709 4.78551C5.62765 5.41935 5.41601 6.15656 5.41601 6.94309C5.41601 8.43204 6.17364 9.74563 7.32523 10.5153C6.62179 10.4929 5.95996 10.2999 5.38139 9.97846C5.38098 9.99639 5.38098 10.0143 5.38098 10.0324C5.38098 12.1118 6.86033 13.8463 8.82359 14.2406C8.46349 14.3387 8.08434 14.3912 7.69294 14.3912C7.4164 14.3912 7.14755 14.3642 6.88546 14.3142C7.43161 16.0191 9.01653 17.26 10.8945 17.2945C9.42576 18.4457 7.57527 19.1318 5.56453 19.1318C5.21812 19.1318 4.87651 19.1114 4.54077 19.0717C6.44003 20.2894 8.69591 21 11.1195 21C19.0134 21 23.3302 14.4605 23.3302 8.78918C23.3302 8.60314 23.326 8.41805 23.3177 8.23395C24.1563 7.62886 24.8839 6.87302 25.4592 6.01238Z" fill="white"/>
</g>
<defs>
<filter id="filter0_d" x="-1" y="0" width="32" height="32" filterUnits="userSpaceOnUse" color-interpolation-filters="sRGB">
<feFlood flood-opacity="0" result="BackgroundImageFix"/>
<feColorMatrix in="SourceAlpha" type="matrix" values="0 0 0 0 0 0 0 0 0 0 0 0 0 0 0 0 0 0 127 0"/>
<feOffset dy="4"/>
<feGaussianBlur stdDeviation="2"/>
<feColorMatrix type="matrix" values="0 0 0 0 0 0 0 0 0 0 0 0 0 0 0 0 0 0 0.25 0"/>
<feBlend mode="normal" in2="BackgroundImageFix" result="effect1_dropShadow"/>
<feBlend mode="normal" in="SourceGraphic" in2="effect1_dropShadow" result="shape"/>
</filter>
</defs>
</svg>
